<svg width="1678" height="118" viewBox="0 0 1678 118" fill="none" xmlns="http://www.w3.org/2000/svg">
<path d="M153 84.6537C107 3.45369 31.8333 23.8204 0 44.1537V117.654H1678V60.6543C1670 62.2543 1664 64.3207 1662 65.1539C1574.8 -52.8461 1501.67 15.9872 1476 65.1539C1407.2 21.1539 1352 61.8206 1333 87.6539C1291 67.2539 1262.5 84.8206 1253.5 96.1539C1192 57.1539 1147 98.6539 1146 97.6539C1098.4 45.6539 1040.83 63.3206 1018 78.6539C964.8 39.4539 907.167 59.6539 885 74.6539C794.2 -7.7461 706.833 35.3206 674.5 67.1539C627.7 55.1539 595.667 65.8206 585.5 72.6539C507.1 15.8539 435.5 50.6539 409.5 75.1539C343.1 33.5539 287.5 68.1539 268 90.6539C220 63.0539 171.333 75.1538 153 84.6537Z" fill="white"/>
</svg>
