<svg width="104" height="103" viewBox="0 0 104 103" fill="none" xmlns="http://www.w3.org/2000/svg">
<path d="M48.3215 5.49073C38.716 11.6717 39.3237 24.9476 41.5729 33.8492C41.8418 34.9132 40.2267 35.918 39.3816 35.2178C31.7377 28.8853 24.2344 27.4715 21.0767 27.6386C12.5748 28.8042 -2.68991 34.9823 4.26618 50.3692C10.8827 65.0051 27.4642 65.3328 36.0512 63.4907C36.6924 63.3532 37.1807 63.7996 36.9217 64.402C34.0239 71.1414 16.2923 99.9562 34.9889 100.493C46.7105 100.83 52.5731 88.1775 54.9986 78.0479C55.2791 76.8767 57.9463 76.8253 58.1614 78.0103L59.9148 87.6708C63.3929 96.9962 82.7395 102.242 86.0002 90.585C89.3957 78.4462 83.3017 69.3421 77.894 64.5909C77.0971 63.8907 77.6807 62.2305 78.7411 62.2577C93.0878 62.6256 98.4503 58.5042 99.3327 56.1976C101.651 52.1177 104.086 42.4426 95.275 36.3811C87.8463 31.2706 76.3247 35.1918 69.1866 38.9931C68.2657 39.4835 67.0887 38.3841 67.5205 37.4343C72.9742 25.4358 72.1594 15.2084 70.9287 11.3191C68.2235 6.26784 59.9149 -1.96959 48.3215 5.49073Z" stroke="white" stroke-width="5"/>
<path d="M48.9372 8.30763C40.0224 14.0405 40.4725 26.2747 42.5222 34.6268C42.7837 35.6926 41.1518 36.7119 40.3007 36.019C33.203 30.2407 26.2772 28.9444 23.3437 29.0995C15.3571 30.1938 1.01747 35.9937 7.55197 50.4385C13.7477 64.1346 29.245 64.4839 37.3334 62.7731C37.9749 62.6375 38.4585 63.085 38.1963 63.686C35.3786 70.1465 18.9168 96.9915 36.4127 97.4938C47.203 97.8036 52.708 86.4037 55.0687 76.9977C55.3618 75.8297 58.0717 75.7868 58.2869 76.9716L59.828 85.4564C63.0952 94.2109 81.2694 99.1353 84.3324 88.1922C87.4809 76.9438 81.9439 68.4712 76.9147 63.9644C76.1246 63.2564 76.7134 61.5822 77.7741 61.6053C91.0555 61.8945 96.0334 58.0614 96.8569 55.9101C99.035 52.08 101.322 42.9972 93.0451 37.3068C86.1405 32.56 75.4719 36.1134 68.752 39.6456C67.8285 40.131 66.6467 39.0232 67.0739 38.0714C72.0857 26.9044 71.3228 17.4061 70.1743 13.7792C67.6331 9.03716 59.8281 1.30405 48.9372 8.30763Z" stroke="#14AD4F" stroke-width="5"/>
<path d="M48.9372 8.30763C40.0224 14.0405 40.4725 26.2747 42.5222 34.6268C42.7837 35.6926 41.1518 36.7119 40.3007 36.019C33.203 30.2407 26.2772 28.9444 23.3437 29.0995C15.3571 30.1938 1.01747 35.9937 7.55197 50.4385C13.7477 64.1346 29.245 64.4839 37.3334 62.7731C37.9749 62.6375 38.4585 63.085 38.1963 63.686C35.3786 70.1465 18.9168 96.9915 36.4127 97.4938C47.203 97.8036 52.708 86.4037 55.0687 76.9977C55.3618 75.8297 58.0717 75.7868 58.2869 76.9716L59.828 85.4564C63.0952 94.2109 81.2694 99.1353 84.3324 88.1922C87.4809 76.9438 81.9439 68.4712 76.9147 63.9644C76.1246 63.2564 76.7134 61.5822 77.7741 61.6053C91.0555 61.8945 96.0334 58.0614 96.8569 55.9101C99.035 52.08 101.322 42.9972 93.0451 37.3068C86.1405 32.56 75.4719 36.1134 68.752 39.6456C67.8285 40.131 66.6467 39.0232 67.0739 38.0714C72.0857 26.9044 71.3228 17.4061 70.1743 13.7792C67.6331 9.03716 59.8281 1.30405 48.9372 8.30763Z" stroke="black" stroke-opacity="0.2" stroke-width="5"/>
<circle cx="54.5002" cy="53.5" r="8.5" fill="#D0D000" stroke="#D6D142"/>
</svg>
