<svg width="2162" height="472" viewBox="0 0 2162 472" fill="none" xmlns="http://www.w3.org/2000/svg">
<path d="M0.5 64.8965V359.326C34.0213 362.258 56.8194 390.682 64.0283 404.528C130.544 353 188.147 393.391 199.195 421.632C225.677 395.839 253.606 414.198 257.317 426.519C302.481 404.528 347.428 445.252 357.34 461.948H376.263C427.289 404.528 476.164 426.519 493.858 441.179H534.408C609.7 375.031 652.003 440.772 665.52 458.283H679.037C735.266 413.325 765.054 416.646 815.555 461.948C889.862 397.062 939.61 441.179 957.48 470.5C991.977 421.632 1049.58 441.125 1061.56 461.948C1108.93 422.766 1143.84 419.094 1191.32 465.613C1245.96 403.182 1293.09 437.453 1311.62 458.283C1347.2 389.719 1416.15 405.63 1437.32 432.627C1492.95 376.255 1545.32 398.286 1571.14 428.962C1634.34 365.24 1691.07 397.062 1711.71 436.292C1721.44 429.451 1742.8 430.998 1752.26 432.627C1801.92 350.552 1883.96 375.031 1911.76 414.302C1970.36 328.521 2048.91 362.792 2069.9 398.42C2085.39 378.928 2094.1 387.079 2100.76 393.318L2100.99 393.533C2110.88 343.444 2144.04 338.312 2159.11 343.444C2160.91 272.992 2163.44 118.651 2159.11 64.8965C2154.79 11.1418 2112.25 0.146549 2091.53 1.36824H81.6C26.452 -6.45062 4.555 40.4626 0.5 64.8965Z" fill="#2F1A8A" stroke="black"/>
</svg>
