<svg width="2162" height="471" viewBox="0 0 2162 471" fill="none" xmlns="http://www.w3.org/2000/svg">
<path d="M0.5 64.0282V358.457C34.0213 361.389 56.8195 389.814 64.0283 403.66C130.544 352.132 188.147 392.522 199.195 420.764C225.677 394.97 253.606 413.33 257.317 425.651C302.481 403.66 347.428 444.383 357.34 461.08H376.263C427.289 403.66 476.164 425.651 493.858 440.311H534.408C609.7 374.163 652.003 439.904 665.52 457.415H679.037C735.266 412.456 765.054 415.778 815.555 461.08C889.862 396.194 939.61 440.311 957.48 469.632C991.977 420.764 1049.58 440.257 1061.56 461.08C1108.93 421.897 1143.84 418.225 1191.32 464.745C1245.96 402.314 1293.09 436.585 1311.62 457.415C1347.2 388.85 1416.15 404.762 1437.32 431.759C1492.95 375.387 1545.32 397.418 1571.14 428.094C1634.34 364.371 1691.07 396.194 1711.71 435.424C1721.44 428.583 1742.8 430.13 1752.26 431.759C1801.92 349.684 1883.96 374.163 1911.76 413.434C1970.36 327.652 2048.91 361.923 2069.9 397.552C2085.39 378.06 2094.1 386.211 2100.76 392.45L2100.99 392.665C2110.88 342.575 2144.04 337.444 2159.11 342.575C2160.91 272.124 2162 119.633 2160.5 64.6333V0.5H2091.53L72.4999 0.500334H0.5V64.0282Z" fill="#2F1A8A" stroke="black"/>
</svg>
