<svg width="1281" height="780" viewBox="0 0 1281 780" fill="none" xmlns="http://www.w3.org/2000/svg">
<path d="M0.5 730.638V3.98245L1280.5 0.501465V749.783L1269.81 752.394C1222.46 649.705 1139.97 707.141 1128.52 749.783C1089 710.355 1044 723.843 1020.07 770.669C1000.5 744.428 974.5 744.428 955.918 775.891C934 736.62 896 738.04 875.727 778.501C842.123 734.641 812.5 736.62 777.97 761.097C754.5 723.843 703 713.905 674.868 758.486C633 676.992 565.5 657.116 515.249 751.524C495.5 720.293 467 725.262 446.514 755.875C412 707.516 363 696.868 313.626 758.486C274 711.775 236.5 720.293 203.65 771.539C184.5 737.33 156 725.262 115.822 764.578C86 678.412 24.43 713.813 0.5 730.638Z" fill="#070924" stroke="#080925"/>
</svg>
